<svg width="68" height="49" viewBox="0 0 68 49" fill="none" xmlns="http://www.w3.org/2000/svg">
<path d="M0 43.75C0 46.6484 2.53819 49 5.66667 49H62.3333C65.4618 49 68 46.6484 68 43.75V24.5H0V43.75ZM22.6667 36.3125C22.6667 35.5906 23.3042 35 24.0833 35H40.1389C40.9181 35 41.5556 35.5906 41.5556 36.3125V40.6875C41.5556 41.4094 40.9181 42 40.1389 42H24.0833C23.3042 42 22.6667 41.4094 22.6667 40.6875V36.3125ZM7.55556 36.3125C7.55556 35.5906 8.19306 35 8.97222 35H17.4722C18.2514 35 18.8889 35.5906 18.8889 36.3125V40.6875C18.8889 41.4094 18.2514 42 17.4722 42H8.97222C8.19306 42 7.55556 41.4094 7.55556 40.6875V36.3125ZM68 5.25V10.5H0V5.25C0 2.35156 2.53819 0 5.66667 0H62.3333C65.4618 0 68 2.35156 68 5.25Z" fill="#EF9C4B"/>
</svg>
